<svg width="121" height="26" viewBox="0 0 121 26" xmlns="http://www.w3.org/2000/svg"
     xmlns:xlink="http://www.w3.org/1999/xlink">
    <defs>
        <path id="a" d="M0 18.078h120.691V0H0z"/>
    </defs>
    <g fill="none" fill-rule="evenodd">
        <g transform="translate(0 2.707)">
            <path d="M2.627 11.679c0 1.201.384 2.18 1.15 2.934.766.754 1.665 1.131 2.698 1.131 1.032 0 1.908-.38 2.628-1.143.72-.762 1.08-1.74 1.08-2.934 0-1.194-.36-2.193-1.08-2.993-.72-.802-1.603-1.202-2.651-1.202-1.048 0-1.948.4-2.698 1.202-.75.8-1.127 1.803-1.127 3.005zm-.868 4.607C.585 15.092 0 13.521 0 11.573c0-1.949.6-3.504 1.806-4.667C3.01 5.744 4.446 5.162 6.11 5.162c1.667 0 3.007.707 4.025 2.12V.402h2.628v17.488h-2.628v-1.886c-.971 1.383-2.387 2.075-4.247 2.075-1.581 0-2.957-.598-4.13-1.792zM16.986 11.679c0 1.201.384 2.18 1.15 2.934.766.754 1.665 1.131 2.698 1.131 1.032 0 1.908-.38 2.627-1.143.72-.762 1.08-1.74 1.08-2.934 0-1.194-.36-2.193-1.08-2.993-.719-.802-1.603-1.202-2.65-1.202-1.049 0-1.948.4-2.698 1.202-.751.8-1.127 1.803-1.127 3.005m-.868 4.607c-1.174-1.194-1.759-2.765-1.759-4.713 0-1.949.6-3.504 1.805-4.667 1.206-1.162 2.63-1.744 4.271-1.744 1.643 0 2.995.786 4.06 2.356V5.35h2.627V17.89h-2.628v-2.05a5.003 5.003 0 0 1-1.913 1.661c-.774.385-1.552.578-2.333.578-1.581 0-2.957-.598-4.13-1.792M32.143 11.101v6.788h-2.626V5.35h2.626v2.287a4.688 4.688 0 0 1 1.749-1.815 4.636 4.636 0 0 1 2.405-.66c1.407 0 2.546.433 3.414 1.296.867.865 1.302 2.114 1.302 3.748v7.683h-2.628v-6.882c0-2.31-.954-3.464-2.863-3.464-.907 0-1.696.302-2.37.907-.672.605-1.009 1.489-1.009 2.651M45.892 17.889h-2.627V.4h2.627v10.276L50.96 5.35h3.378L49.6 10.324l5.09 7.565H51.5l-3.707-5.491-1.901 1.932z"
                  fill="#FEFEFE"/>
            <mask id="b" fill="#fff">
                <use xlink:href="#a"/>
            </mask>
            <path d="M55.959 17.889h2.627V5.35h-2.627V17.89zm.163-15.037a1.61 1.61 0 0 1-.493-1.178c0-.456.164-.85.493-1.179.328-.33.72-.495 1.174-.495.453 0 .845.166 1.172.495.33.33.493.723.493 1.18 0 .454-.164.848-.493 1.177-.327.33-.72.496-1.172.496-.454 0-.846-.166-1.174-.496zM61.46 17.476c-.4-.4-.598-.89-.598-1.472s.199-1.073.599-1.474c.398-.4.887-.6 1.466-.6.577 0 1.067.2 1.467.6.397.401.598.892.598 1.474 0 .581-.2 1.072-.598 1.472-.4.4-.89.602-1.467.602-.58 0-1.068-.201-1.466-.602M72.805 18.078c-1.737 0-3.231-.594-4.482-1.78-1.252-1.186-1.877-2.738-1.877-4.655 0-1.917.652-3.476 1.959-4.678 1.305-1.202 2.897-1.803 4.775-1.803 1.877 0 3.464.652 4.763 1.956l-1.549 1.91c-1.08-.944-2.167-1.415-3.262-1.415a4.102 4.102 0 0 0-2.85 1.096c-.806.73-1.209 1.673-1.209 2.828 0 1.156.4 2.133 1.197 2.935.798.801 1.779 1.202 2.944 1.202 1.166 0 2.265-.534 3.298-1.603l1.548 1.697c-1.517 1.54-3.27 2.31-5.255 2.31M82.763 14.578c.743.762 1.685 1.143 2.828 1.143 1.14 0 2.084-.38 2.827-1.143.743-.762 1.113-1.748 1.113-2.958 0-1.21-.37-2.196-1.113-2.959C87.675 7.9 86.73 7.52 85.59 7.52c-1.143 0-2.085.38-2.828 1.142-.743.763-1.115 1.75-1.115 2.959 0 1.21.372 2.196 1.115 2.958m7.52 1.626c-1.251 1.25-2.815 1.873-4.692 1.873-1.878 0-3.442-.624-4.693-1.873-1.252-1.25-1.876-2.777-1.876-4.584 0-1.807.624-3.335 1.876-4.584 1.251-1.249 2.815-1.873 4.693-1.873 1.877 0 3.44.624 4.692 1.873 1.251 1.25 1.877 2.777 1.877 4.584 0 1.807-.626 3.335-1.877 4.584M96.032 11.679c0 1.201.384 2.18 1.15 2.934.766.754 1.665 1.131 2.698 1.131 1.032 0 1.908-.38 2.628-1.143.719-.762 1.08-1.74 1.08-2.934 0-1.194-.361-2.193-1.08-2.993-.72-.802-1.603-1.202-2.651-1.202-1.049 0-1.948.4-2.698 1.202-.75.8-1.127 1.803-1.127 3.005m-.868 4.607c-1.174-1.194-1.759-2.765-1.759-4.713 0-1.949.6-3.504 1.805-4.667 1.206-1.162 2.64-1.744 4.306-1.744 1.667 0 3.007.707 4.024 2.12V.402h2.629v17.488h-2.629v-1.886c-.97 1.383-2.386 2.075-4.246 2.075-1.581 0-2.957-.598-4.13-1.792M110.743 11.69c0 .205.008.354.023.448l6.923-2.993c-.533-1.037-1.479-1.555-2.84-1.555-1.033 0-1.974.361-2.827 1.084-.852.723-1.279 1.728-1.279 3.017m3.966-6.529c1.704 0 3.12.475 4.247 1.426 1.125.95 1.696 2.188 1.712 3.712l.023.047-9.103 3.842c.813 1.005 1.92 1.508 3.32 1.508s2.554-.55 3.46-1.65l1.55 1.72c-1.487 1.541-3.238 2.31-5.256 2.31-1.768 0-3.285-.59-4.553-1.767-1.267-1.178-1.9-2.734-1.9-4.667 0-1.335.33-2.51.986-3.524.657-1.013 1.47-1.758 2.44-2.239a6.855 6.855 0 0 1 3.074-.718"
                  fill="#FEFEFE" mask="url(#b)"/>
        </g>
    </g>
</svg>
